<?xml version="1.0" standalone="no"?>
<!DOCTYPE svg PUBLIC "-//W3C//DTD SVG 20010904//EN"
 "http://www.w3.org/TR/2001/REC-SVG-20010904/DTD/svg10.dtd">
<svg version="1.0" xmlns="http://www.w3.org/2000/svg"
 width="380.000000pt" height="380.000000pt" viewBox="0 0 380.000000 380.000000"
 preserveAspectRatio="xMidYMid meet">
<metadata>
Created by potrace 1.14, written by Peter Selinger 2001-2017
</metadata>
<g transform="translate(0.000000,380.000000) scale(0.100000,-0.100000)"
fill="#000000" stroke="none">
<path d="M230 2010 l0 -1050 180 0 180 0 0 480 0 480 525 0 525 0 0 -480 0
-480 180 0 180 0 0 1050 0 1050 -180 0 -180 0 0 -405 0 -405 -525 0 -525 0 0
405 0 405 -180 0 -180 0 0 -1050z"/>
<path d="M2460 2010 l0 -1050 175 0 175 0 0 475 0 475 390 0 390 0 0 155 0
155 -390 0 -390 0 0 260 0 260 405 0 405 0 0 160 0 160 -580 0 -580 0 0 -1050z"/>
</g>
</svg>
